<?xml version="1.0" encoding="UTF-8"?>
<svg width="274px" height="54px" viewBox="0 0 274 54" version="1.1" xmlns="http://www.w3.org/2000/svg" xmlns:xlink="http://www.w3.org/1999/xlink">
    <title>intuiflow-color</title>
    <g id="Homepage" stroke="none" stroke-width="1" fill="none" fill-rule="evenodd">
        <g id="Platform" transform="translate(-70.000000, -47.000000)" fill-rule="nonzero">
            <g id="intuiflow-color" transform="translate(70.000000, 47.000000)">
                <path d="M0.136129785,30.5631335 L11.8540387,50.4957088 C13.1432807,52.687804 15.5151226,54.0250003 18.0691205,53.9996457 L40.9720662,53.7636021 C41.3441328,53.7540431 41.6836157,53.5503133 41.8654693,53.2274547 C42.047323,52.9045962 42.0446472,52.5103669 41.8584276,52.1899777 L40.2176038,49.4676076 C32.780006,36.7615007 19.0908427,28.9638456 4.3041388,29.0104908 L1.04359504,29 C0.668691607,29.0040968 0.324129735,29.2056691 0.1384652,29.5295105 C-0.0471993348,29.8533519 -0.0460799374,30.2508217 0.141405746,30.5736244" id="Path" fill="#E56A54"></path>
                <path d="M11.1211334,3.76582092 L0.138914433,23.4415428 C-0.0480139013,23.7660254 -0.0461725374,24.1663024 0.143733164,24.4890422 C0.333638866,24.8117819 0.682173537,25.0069598 1.05582611,25 L4.19508306,24.9322852 C11.3314931,24.882283 18.3292832,22.9512372 24.4862868,19.3329113 C30.6416603,15.7157517 35.7416832,10.5411131 39.2760204,4.32679715 L40.8611898,1.55827557 C41.0466358,1.2362165 41.0462448,0.839328681 40.8601644,0.517637644 C40.6740841,0.195946606 40.3307023,-0.00147152657 39.959819,0 L17.1665342,0.192194562 C14.6589848,0.21368684 12.3554586,1.58167639 11.131494,3.77620937" id="Path" fill="#4EC3E0"></path>
                <path d="M44.8763746,4.54517537 L43.3618673,7.27388541 C36.1797295,19.8093175 36.2150683,35.2276882 43.4545923,47.7299779 L45.0566731,50.4947956 C45.2422648,50.8079901 45.5790157,51 45.9427113,51 C46.3064069,51 46.6431579,50.8079901 46.8287496,50.4947956 L58.0845263,30.7748362 C59.3233288,28.6088167 59.3036534,25.9431823 58.0330124,23.7957347 L46.6484511,4.49875119 C46.3587487,4.0180764 45.738366,3.85761664 45.2524257,4.13767424 C45.0930318,4.22838801 44.9626275,4.36254336 44.8763746,4.5245424" id="Path" fill="#615F9F"></path>
                <polygon id="Path" fill="#403D75" points="73 35 73 7 75 7 75 35"></polygon>
                <polygon id="Path" fill="#403D75" points="101.815365 35 85.1846348 10.658653 85.1846348 35 83 35 83 7 85.1846348 7 101.815365 31.2591301 101.815365 7 104 7 104 35"></polygon>
                <polygon id="Path" fill="#403D75" points="120.552675 8.89098917 120.552675 35 118.411026 35 118.411026 8.89098917 110 8.89098917 110 7 129 7 129 8.89098917"></polygon>
                <path d="M144.502542,35 C138.934368,35 135,31.1820499 135,25.7584198 L135,7 L137.096972,7 L137.096972,25.4882578 C137.096972,30.0759148 140.0592,33.1343528 144.497453,33.1343528 C148.935705,33.1343528 151.897933,30.0759148 151.897933,25.4882578 L151.897933,7 L154,7 L154,25.7584198 C154.005085,31.2075369 150.070717,35 144.502542,35 Z" id="Path" fill="#403D75"></path>
                <polygon id="Path" fill="#403D75" points="162 35 162 7 164 7 164 35"></polygon>
                <polygon id="Path" fill="#403D75" points="176.634337 11.8764911 176.634337 18.7570196 188.014214 18.7570196 188.014214 23.6335107 176.634337 23.6335107 176.634337 35 171 35 171 7 190 7 190 11.8764911"></polygon>
                <polygon id="Path" fill="#403D75" points="195 35 195 7 200.432043 7 200.432043 30.1235089 213 30.1235089 213 35"></polygon>
                <path d="M234.166251,31.986627 C229.882626,36.0044577 223.081193,36.0044577 218.797568,31.986627 C215.922137,29.2007865 216.000207,25.7576696 216.000207,21 C216.000207,16.2423304 215.922137,12.7992135 218.797568,10.013373 C223.081193,5.99554234 229.882626,5.99554234 234.166251,10.013373 C237.041682,12.7992135 236.999967,16.2423304 236.999967,21 C236.999967,25.7576696 237.041682,29.2159544 234.166251,31.986627 Z M230.05402,13.2795309 C229.148748,12.3088247 227.849952,11.7711243 226.500175,11.808243 C225.139899,11.7715915 223.830083,12.3083368 222.9098,13.2795309 C221.829556,14.4373484 221.547754,15.7165093 221.547754,21.0151679 C221.547754,26.3138265 221.829556,27.5879314 222.9098,28.750805 C223.829135,29.7238674 225.139081,30.2625105 226.500175,30.2271488 C227.849952,30.2642675 229.148748,29.7265671 230.05402,28.7558609 C231.134263,27.5980434 231.452596,26.3188825 231.452596,21.0202239 C231.452596,15.7215653 231.134263,14.4221805 230.05402,13.2643629 L230.05402,13.2795309 Z" id="Shape" fill="#403D75"></path>
                <polygon id="Path" fill="#403D75" points="266.356983 35 261.71994 35 256.492158 18.0427601 251.264376 35 246.627334 35 239 7 244.781927 7 249.178491 24.6509451 254.380134 7 258.56236 7 263.764003 24.6509451 268.20239 7 274 7"></polygon>
                <g id="By-Demand-Driven-Tec" transform="translate(72.960000, 42.300000)" fill="#737373">
                    <path d="M0,8.7 L3.54,8.7 C4.512,8.7 5.016,8.58 5.46,8.256 C5.988,7.848 6.252,7.2 6.252,6.3 C6.252,5.664 6.132,5.124 5.904,4.764 C5.796,4.596 5.724,4.524 5.376,4.224 C5.88,3.828 6.096,3.288 6.096,2.472 C6.096,1.692 5.856,1.056 5.4,0.66 C4.956,0.276 4.428,0.132 3.384,0.132 L0,0.132 L0,8.7 Z M1.836,3.612 L1.836,1.596 L3.252,1.596 C3.984,1.596 4.272,1.872 4.272,2.604 C4.272,3.324 3.984,3.612 3.252,3.612 L1.836,3.612 Z M1.836,7.236 L1.836,5.076 L3.408,5.076 C4.128,5.076 4.416,5.376 4.416,6.156 C4.416,6.924 4.128,7.236 3.408,7.236 L1.836,7.236 Z" id="Shape"></path>
                    <polygon id="Path" points="9.311077 8.7 11.159077 8.7 11.159077 5.616 13.799077 0.132 11.843077 0.132 10.235077 3.792 8.627077 0.132 6.671077 0.132 9.311077 5.616"></polygon>
                    <path d="M16.905231,8.7 L19.893231,8.7 C22.221231,8.724 23.265231,7.668 23.205231,5.352 L23.205231,3.48 C23.265231,1.164 22.209231,0.096 19.893231,0.132 L16.905231,0.132 L16.905231,8.7 Z M18.753231,7.236 L18.753231,1.596 L19.557231,1.596 C20.949231,1.584 21.333231,2.004 21.357231,3.624 L21.357231,5.208 C21.333231,6.828 20.949231,7.248 19.557231,7.236 L18.753231,7.236 Z" id="Shape"></path>
                    <polygon id="Path" points="24.932308 8.7 30.392308 8.7 30.392308 7.2 26.756308 7.2 26.756308 5.124 29.792308 5.124 29.792308 3.624 26.756308 3.624 26.756308 1.632 30.344308 1.632 30.344308 0.132 24.932308 0.132"></polygon>
                    <polygon id="Path" points="31.927385 8.7 33.691385 8.7 33.691385 3.576 35.275385 6.828 36.451385 6.828 38.035385 3.576 38.035385 8.7 39.799385 8.7 39.799385 0.132 38.083385 0.132 35.863385 4.74 33.643385 0.132 31.927385 0.132"></polygon>
                    <path d="M46.422462,7.092 L46.914462,8.7 L48.918462,8.7 L45.810462,0.132 L44.022462,0.132 L40.926462,8.7 L42.918462,8.7 L43.422462,7.092 L46.422462,7.092 Z M45.978462,5.628 L43.866462,5.628 L44.934462,2.292 L45.978462,5.628 Z" id="Shape"></path>
                    <polygon id="Path" points="49.625539 8.7 51.413539 8.7 51.413539 3.216 54.449539 8.7 56.237539 8.7 56.237539 0.132 54.449539 0.132 54.449539 5.616 51.413539 0.132 49.625539 0.132"></polygon>
                    <path d="M58.180616,8.7 L61.168616,8.7 C63.496616,8.724 64.540616,7.668 64.480616,5.352 L64.480616,3.48 C64.540616,1.164 63.484616,0.096 61.168616,0.132 L58.180616,0.132 L58.180616,8.7 Z M60.028616,7.236 L60.028616,1.596 L60.832616,1.596 C62.224616,1.584 62.608616,2.004 62.632616,3.624 L62.632616,5.208 C62.608616,6.828 62.224616,7.248 60.832616,7.236 L60.028616,7.236 Z" id="Shape"></path>
                    <path d="M68.65477,8.7 L71.64277,8.7 C73.97077,8.724 75.01477,7.668 74.95477,5.352 L74.95477,3.48 C75.01477,1.164 73.95877,0.096 71.64277,0.132 L68.65477,0.132 L68.65477,8.7 Z M70.50277,7.236 L70.50277,1.596 L71.30677,1.596 C72.69877,1.584 73.08277,2.004 73.10677,3.624 L73.10677,5.208 C73.08277,6.828 72.69877,7.248 71.30677,7.236 L70.50277,7.236 Z" id="Shape"></path>
                    <path d="M78.565847,5.292 L79.465847,5.292 L81.073847,8.7 L83.113847,8.7 L81.265847,5.148 C82.369847,4.836 82.813847,4.128 82.813847,2.652 C82.813847,1.764 82.621847,1.188 82.189847,0.756 C81.733847,0.3 81.121847,0.132 79.969847,0.132 L76.717847,0.132 L76.717847,8.7 L78.565847,8.7 L78.565847,5.292 Z M78.529847,3.876 L78.529847,1.596 L79.789847,1.596 C80.665847,1.596 80.989847,1.908 80.989847,2.736 C80.989847,3.564 80.665847,3.876 79.813847,3.876 L78.529847,3.876 Z" id="Shape"></path>
                    <polygon id="Path" points="84.516924 8.7 86.364924 8.7 86.364924 0.132 84.516924 0.132"></polygon>
                    <polygon id="Path" points="90.480001 8.7 92.100001 8.7 94.992001 0.132 93.144001 0.132 91.296001 6.252 89.448001 0.132 87.600001 0.132"></polygon>
                    <polygon id="Path" points="96.239078 8.7 101.699078 8.7 101.699078 7.2 98.063078 7.2 98.063078 5.124 101.099078 5.124 101.099078 3.624 98.063078 3.624 98.063078 1.632 101.651078 1.632 101.651078 0.132 96.239078 0.132"></polygon>
                    <polygon id="Path" points="103.234155 8.7 105.022155 8.7 105.022155 3.216 108.058155 8.7 109.846155 8.7 109.846155 0.132 108.058155 0.132 108.058155 5.616 105.022155 0.132 103.234155 0.132"></polygon>
                    <polygon id="Path" points="115.664309 8.7 117.512309 8.7 117.512309 1.632 119.780309 1.632 119.780309 0.132 113.384309 0.132 113.384309 1.632 115.664309 1.632"></polygon>
                    <polygon id="Path" points="121.111386 8.7 126.571386 8.7 126.571386 7.2 122.935386 7.2 122.935386 5.124 125.971386 5.124 125.971386 3.624 122.935386 3.624 122.935386 1.632 126.523386 1.632 126.523386 0.132 121.111386 0.132"></polygon>
                    <path d="M132.390463,6.168 C132.294463,6.972 131.874463,7.344 131.058463,7.344 C130.062463,7.344 129.750463,6.84 129.750463,5.22 L129.750463,3.636 C129.750463,2.028 130.062463,1.512 131.046463,1.512 C131.814463,1.512 132.198463,1.872 132.294463,2.688 L133.986463,2.568 C133.902463,0.828 132.966463,0.024 131.022463,0.024 C129.870463,0.024 129.150463,0.288 128.586463,0.912 C128.082463,1.476 127.902463,2.172 127.902463,3.492 L127.902463,5.364 C127.902463,6.588 128.058463,7.248 128.466463,7.8 C129.006463,8.52 129.786463,8.832 131.022463,8.832 C132.174463,8.832 132.990463,8.568 133.506463,8.028 C133.914463,7.596 134.082463,7.152 134.118463,6.372 L132.390463,6.168 Z" id="Path"></path>
                    <polygon id="Path" points="135.59354 8.7 137.44154 8.7 137.44154 5.124 139.96154 5.124 139.96154 8.7 141.80954 8.7 141.80954 0.132 139.96154 0.132 139.96154 3.624 137.44154 3.624 137.44154 0.132 135.59354 0.132"></polygon>
                    <polygon id="Path" points="143.764617 8.7 145.552617 8.7 145.552617 3.216 148.588617 8.7 150.376617 8.7 150.376617 0.132 148.588617 0.132 148.588617 5.616 145.552617 0.132 143.764617 0.132"></polygon>
                    <path d="M152.091694,5.424 C152.091694,6.6 152.259694,7.284 152.679694,7.812 C153.243694,8.532 154.047694,8.832 155.331694,8.832 C156.555694,8.832 157.287694,8.58 157.863694,7.956 C158.391694,7.404 158.583694,6.708 158.583694,5.424 L158.583694,3.408 C158.583694,2.22 158.415694,1.56 157.995694,1.02 C157.431694,0.3 156.627694,0 155.331694,0 C154.119694,0 153.387694,0.252 152.811694,0.876 C152.283694,1.428 152.091694,2.124 152.091694,3.408 L152.091694,5.424 Z M156.735694,5.268 C156.735694,6.828 156.387694,7.344 155.331694,7.344 C154.287694,7.344 153.939694,6.828 153.939694,5.268 L153.939694,3.564 C153.939694,2.004 154.287694,1.488 155.343694,1.488 C156.387694,1.488 156.735694,2.004 156.735694,3.564 L156.735694,5.268 Z" id="Shape"></path>
                    <polygon id="Path" points="160.322771 8.7 165.782771 8.7 165.782771 7.2 162.170771 7.2 162.170771 0.132 160.322771 0.132"></polygon>
                    <path d="M166.885848,5.424 C166.885848,6.6 167.053848,7.284 167.473848,7.812 C168.037848,8.532 168.841848,8.832 170.125848,8.832 C171.349848,8.832 172.081848,8.58 172.657848,7.956 C173.185848,7.404 173.377848,6.708 173.377848,5.424 L173.377848,3.408 C173.377848,2.22 173.209848,1.56 172.789848,1.02 C172.225848,0.3 171.421848,0 170.125848,0 C168.913848,0 168.181848,0.252 167.605848,0.876 C167.077848,1.428 166.885848,2.124 166.885848,3.408 L166.885848,5.424 Z M171.529848,5.268 C171.529848,6.828 171.181848,7.344 170.125848,7.344 C169.081848,7.344 168.733848,6.828 168.733848,5.268 L168.733848,3.564 C168.733848,2.004 169.081848,1.488 170.137848,1.488 C171.181848,1.488 171.529848,2.004 171.529848,3.564 L171.529848,5.268 Z" id="Shape"></path>
                    <path d="M178.284925,5.304 L179.568925,5.304 L179.568925,5.784 C179.568925,6.876 179.148925,7.344 178.164925,7.344 C177.096925,7.344 176.772925,6.84 176.772925,5.22 L176.772925,3.636 C176.772925,2.028 177.108925,1.512 178.140925,1.512 C178.956925,1.512 179.364925,1.884 179.460925,2.688 L181.152925,2.568 C181.080925,0.84 180.108925,0.024 178.116925,0.024 C176.940925,0.024 176.196925,0.288 175.632925,0.912 C175.116925,1.476 174.924925,2.172 174.924925,3.504 L174.924925,5.364 C174.924925,6.588 175.080925,7.248 175.500925,7.8 C176.052925,8.52 176.856925,8.832 178.140925,8.832 C179.448925,8.832 180.252925,8.52 180.816925,7.812 C181.260925,7.248 181.404925,6.636 181.404925,5.376 L181.404925,3.9 L178.284925,3.9 L178.284925,5.304 Z" id="Path"></path>
                    <polygon id="Path" points="183.036002 8.7 184.884002 8.7 184.884002 0.132 183.036002 0.132"></polygon>
                    <polygon id="Path" points="186.839079 8.7 192.299079 8.7 192.299079 7.2 188.663079 7.2 188.663079 5.124 191.699079 5.124 191.699079 3.624 188.663079 3.624 188.663079 1.632 192.251079 1.632 192.251079 0.132 186.839079 0.132"></polygon>
                    <path d="M193.390156,7.332 C193.654156,7.776 193.882156,8.028 194.254156,8.268 C194.842156,8.628 195.706156,8.844 196.654156,8.844 C197.710156,8.844 198.538156,8.604 199.066156,8.148 C199.546156,7.728 199.774156,7.116 199.774156,6.24 C199.774156,5.316 199.498156,4.704 198.934156,4.32 C198.502156,4.044 198.226156,3.948 197.134156,3.672 C195.898156,3.36 195.538156,3.084 195.538156,2.424 C195.538156,1.824 195.946156,1.476 196.642156,1.476 C197.326156,1.476 197.794156,1.716 198.178156,2.268 L199.546156,1.392 C198.994156,0.456 198.070156,0 196.690156,0 C194.818156,0 193.774156,0.9 193.774156,2.532 C193.774156,3.96 194.446156,4.668 196.222156,5.112 C197.410156,5.412 197.410156,5.412 197.650156,5.568 C197.878156,5.712 198.010156,5.988 198.010156,6.324 C198.010156,6.996 197.566156,7.344 196.666156,7.344 C195.742156,7.344 195.178156,7.068 194.794156,6.444 L193.390156,7.332 Z" id="Path"></path>
                </g>
            </g>
        </g>
    </g>
</svg>